<svg xmlns="http://www.w3.org/2000/svg" xmlns:xlink="http://www.w3.org/1999/xlink" width="500" zoomAndPan="magnify" viewBox="0 0 375 374.999991" height="500" preserveAspectRatio="xMidYMid meet" version="1.0"><defs><clipPath id="c6590f5708"><path d="M 0 0 L 371.25 0 L 371.25 371.25 L 0 371.25 Z M 0 0 " clip-rule="nonzero"/></clipPath></defs><path fill="#fbfbfa" d="M 267.476562 144.929688 C 267.476562 144.929688 270.292969 204.246094 225.0625 240.867188 C 157.605469 295.648438 84.828125 251.199219 84.828125 251.199219 C 84.828125 251.199219 102.515625 251.511719 118.164062 247.285156 C 133.816406 243.058594 144.929688 233.042969 144.929688 233.042969 C 144.929688 233.042969 127.867188 229.445312 119.105469 223.027344 C 110.183594 216.609375 106.894531 204.246094 106.894531 204.246094 C 106.894531 204.246094 112.6875 204.714844 116.445312 204.714844 C 120.199219 204.558594 124.738281 202.835938 124.738281 202.835938 C 124.738281 202.835938 112.53125 201.429688 101.105469 188.59375 C 92.183594 178.578125 92.808594 161.832031 92.808594 161.832031 C 92.808594 161.832031 98.132812 164.960938 101.105469 165.742188 C 103.921875 166.527344 109.402344 166.527344 109.402344 166.527344 C 109.402344 166.527344 98.757812 160.109375 93.90625 143.832031 C 89.210938 127.398438 98.289062 110.808594 98.289062 110.808594 C 98.289062 110.808594 113.9375 129.902344 137.574219 142.269531 C 161.207031 154.632812 183.429688 154.164062 183.429688 154.164062 C 183.429688 154.164062 180.144531 144.300781 185.777344 129.902344 C 191.410156 115.347656 204.246094 105.019531 223.652344 103.453125 C 243.058594 101.886719 255.425781 116.601562 255.425781 116.601562 C 255.425781 116.601562 261.371094 115.503906 268.257812 113 C 275.144531 110.496094 281.875 107.367188 281.875 107.367188 C 281.875 107.367188 279.527344 114.722656 274.832031 120.511719 C 270.136719 126.304688 264.816406 129.746094 264.816406 129.746094 C 264.816406 129.746094 270.917969 129.277344 277.023438 127.554688 C 283.125 125.835938 286.570312 124.113281 286.570312 124.113281 C 279.839844 136.007812 267.476562 144.929688 267.476562 144.929688 Z M 267.476562 144.929688 " fill-opacity="1" fill-rule="nonzero"/><g clip-path="url(#c6590f5708)"><path fill="#fbfbfa" d="M 185.777344 371.554688 C 83.417969 371.554688 0 288.292969 0 185.777344 C 0 83.261719 83.417969 0 185.777344 0 C 288.136719 0 371.554688 83.417969 371.554688 185.777344 C 371.554688 288.136719 288.292969 371.554688 185.777344 371.554688 Z M 185.777344 10.171875 C 88.898438 10.171875 10.171875 88.898438 10.171875 185.777344 C 10.171875 282.65625 88.898438 361.382812 185.777344 361.382812 C 282.65625 361.382812 361.382812 282.65625 361.382812 185.777344 C 361.382812 88.898438 282.65625 10.171875 185.777344 10.171875 Z M 185.777344 10.171875 " fill-opacity="1" fill-rule="nonzero"/></g></svg>